<svg xmlns="http://www.w3.org/2000/svg" width="18" height="21" viewBox="0 0 18 21" fill="none">
<path d="M12.623 9.65179V5.12302C12.623 4.16214 12.2413 3.24061 11.5619 2.56116C10.8824 1.88171 9.96088 1.5 9 1.5C8.03911 1.5 7.11759 1.88171 6.43814 2.56116C5.75869 3.24061 5.37698 4.16214 5.37698 5.12302V9.65179M1.73313 8.60112C1.76956 8.14716 1.97565 7.72358 2.31034 7.41473C2.64504 7.10588 3.08378 6.93444 3.5392 6.93453H14.4608C14.9162 6.93444 15.355 7.10588 15.6897 7.41473C16.0244 7.72358 16.2304 8.14716 16.2669 8.60112L16.9942 17.6587C17.0142 17.9079 16.9824 18.1586 16.9007 18.395C16.8191 18.6313 16.6894 18.8482 16.5199 19.032C16.3503 19.2158 16.1445 19.3625 15.9155 19.4628C15.6864 19.5632 15.4391 19.615 15.189 19.6151H2.81098C2.56092 19.615 2.31358 19.5632 2.08454 19.4628C1.8555 19.3625 1.64972 19.2158 1.48015 19.032C1.31058 18.8482 1.18089 18.6313 1.09925 18.395C1.01762 18.1586 0.985802 17.9079 1.00581 17.6587L1.73313 8.60112Z" stroke="#1A1A1A" stroke-width="1.5" stroke-linecap="round" stroke-linejoin="round"/>
</svg>