<svg xmlns="http://www.w3.org/2000/svg" width="25" height="25" viewBox="0 0 25 25" fill="none">
<path fill-rule="evenodd" clip-rule="evenodd" d="M20.5 18.5H4.5C3.95 18.5 3.5 18.05 3.5 17.5C3.5 16.95 3.95 16.5 4.5 16.5H20.5C21.05 16.5 21.5 16.95 21.5 17.5C21.5 18.05 21.05 18.5 20.5 18.5ZM20.5 13.5H4.5C3.95 13.5 3.5 13.05 3.5 12.5C3.5 11.95 3.95 11.5 4.5 11.5H20.5C21.05 11.5 21.5 11.95 21.5 12.5C21.5 13.05 21.05 13.5 20.5 13.5ZM21.5 7.5C21.5 8.05 21.05 8.5 20.5 8.5H4.5C3.95 8.5 3.5 8.05 3.5 7.5C3.5 6.95 3.95 6.5 4.5 6.5H20.5C21.05 6.5 21.5 6.95 21.5 7.5Z" fill="#0F7012"/>
</svg>