<svg width="45" height="32" viewBox="0 0 45 32" fill="none" xmlns="http://www.w3.org/2000/svg">
<rect x="0.5" y="0.5" width="44" height="30.7647" rx="4.79412" fill="#1A1A1A" stroke="#333333"/>
<path fill-rule="evenodd" clip-rule="evenodd" d="M28.5585 24.3928C33.515 24.3928 37.533 20.4226 37.533 15.5251C37.533 10.6277 33.515 6.65747 28.5585 6.65747C26.3372 6.65747 24.3043 7.45494 22.7371 8.77595C21.17 7.45499 19.1372 6.65755 16.9158 6.65755C11.9594 6.65755 7.94141 10.6277 7.94141 15.5252C7.94141 20.4227 11.9594 24.3928 16.9158 24.3928C19.1372 24.3928 21.1701 23.5954 22.7372 22.2744C24.3044 23.5953 26.3372 24.3928 28.5585 24.3928Z" fill="#ED0006"/>
<path fill-rule="evenodd" clip-rule="evenodd" d="M22.7383 22.274C24.6678 20.6475 25.8913 18.2274 25.8913 15.5249C25.8913 12.8224 24.6678 10.4022 22.7383 8.77576C24.3054 7.45472 26.3383 6.65723 28.5597 6.65723C33.5162 6.65723 37.5342 10.6274 37.5342 15.5249C37.5342 20.4223 33.5162 24.3925 28.5597 24.3925C26.3383 24.3925 24.3054 23.595 22.7383 22.274Z" fill="#F9A000"/>
<path fill-rule="evenodd" clip-rule="evenodd" d="M22.735 22.2741C24.6645 20.6476 25.888 18.2275 25.888 15.525C25.888 12.8225 24.6645 10.4024 22.735 8.77588C20.8055 10.4024 19.582 12.8225 19.582 15.525C19.582 18.2275 20.8055 20.6476 22.735 22.2741Z" fill="#FF5E00"/>
</svg>
