<svg xmlns="http://www.w3.org/2000/svg" width="15" height="16" viewBox="0 0 15 16" fill="none">
<path d="M13.0766 6.20378V5.6271C13.0766 4.24685 12.5881 2.96429 11.7026 2.01261C10.795 1.03571 9.54714 0.5 8.18579 0.5H7.70995C6.34861 0.5 5.10071 1.03571 4.19315 2.01261C3.30764 2.96429 2.8192 4.24685 2.8192 5.6271V6.20378C1.74462 6.27626 0.890625 7.17122 0.890625 8.26471V9.16597C0.890625 10.3036 1.8171 11.23 2.9547 11.23H4.11752C4.3255 11.23 4.49567 11.0599 4.49567 10.8519V6.57563C4.49567 6.36765 4.3255 6.19748 4.11752 6.19748H3.5755V5.6271C3.5755 3.13445 5.35281 1.2563 7.7068 1.2563H8.18264C10.5398 1.2563 12.3139 3.13445 12.3139 5.6271V6.19748H11.7719C11.5639 6.19748 11.3938 6.36765 11.3938 6.57563V10.8487C11.3938 11.0567 11.5639 11.2269 11.7719 11.2269H12.3013C12.1469 13.1996 10.7887 13.6565 10.1585 13.7605C9.98516 13.2279 9.48411 12.8435 8.89483 12.8435H7.94945C7.21836 12.8435 6.62277 13.4391 6.62277 14.1702C6.62277 14.9013 7.21836 15.5 7.94945 15.5H8.89798C9.50932 15.5 10.023 15.084 10.1774 14.5231C10.4862 14.479 10.9747 14.3687 11.46 14.0851C12.1438 13.6849 12.9537 12.8687 13.0608 11.2237C14.1417 11.1576 14.9988 10.2595 14.9988 9.16282V8.26155C15.002 7.17122 14.1511 6.27311 13.0766 6.20378ZM3.74567 10.4706H2.961C2.23936 10.4706 1.65323 9.88445 1.65323 9.16282V8.26155C1.65323 7.53992 2.23936 6.95378 2.961 6.95378H3.74567V10.4706ZM8.89798 14.7437H7.94945C7.63432 14.7437 7.37907 14.4884 7.37907 14.1733C7.37907 13.8582 7.63432 13.6029 7.94945 13.6029H8.89798C9.21311 13.6029 9.46836 13.8582 9.46836 14.1733C9.46836 14.4884 9.21311 14.7437 8.89798 14.7437ZM14.2457 9.16282C14.2457 9.88445 13.6595 10.4706 12.9379 10.4706H12.1532V6.95378H12.9379C13.6595 6.95378 14.2457 7.53992 14.2457 8.26155V9.16282Z" fill="#1A1A1A"/>
</svg>