<svg xmlns="http://www.w3.org/2000/svg" width="18" height="18" viewBox="0 0 18 18" fill="none">
<path fill-rule="evenodd" clip-rule="evenodd" d="M0.7995 4.89003L0.776125 4.88109L0.776813 4.89828L0.75 4.9079V13.1985L8.46856 15.9333L8.46925 15.9437L8.94706 16.1025L17.25 13.2108V4.88109L9 1.88428L0.7995 4.89003ZM2.91631 5.14028L8.44931 3.11146L8.99931 2.91071L10.87 3.60028L4.85644 5.84359L2.91631 5.14028ZM9.31831 7.48122L8.69613 7.25296L7.63806 6.86384L13.6502 4.62053L15.4295 5.25578L9.31831 7.49634V7.48122ZM9.33275 8.51315L16.2861 5.97559V12.5261L9.42006 14.9172L9.33275 8.51315ZM1.77094 12.4072L1.7455 6.25953L7.88556 8.49115L7.96531 14.7096L1.77094 12.4072Z" fill="#368007"/>
</svg>