<svg xmlns="http://www.w3.org/2000/svg" width="16" height="17" viewBox="0 0 16 17" fill="none">
<path d="M8 0.0556641C7.12097 0.0556641 6.26168 0.316326 5.5308 0.804688C4.79991 1.29305 4.23026 1.98718 3.89387 2.79929C3.55748 3.61141 3.46946 4.50504 3.64095 5.36718C3.81244 6.22931 4.23574 7.02124 4.8573 7.64281C5.47887 8.26437 6.27079 8.68766 7.13293 8.85915C7.99507 9.03064 8.8887 8.94263 9.70082 8.60624C10.5129 8.26985 11.2071 7.70019 11.6954 6.96931C12.1838 6.23842 12.4444 5.37914 12.4444 4.50011C12.4444 3.32137 11.9762 2.19091 11.1427 1.35741C10.3092 0.523917 9.17874 0.0556641 8 0.0556641ZM8 7.16678C7.47258 7.16678 6.95701 7.01038 6.51848 6.71736C6.07995 6.42434 5.73815 6.00787 5.53632 5.5206C5.33449 5.03333 5.28168 4.49715 5.38457 3.97987C5.48747 3.46258 5.74144 2.98743 6.11438 2.61449C6.48732 2.24155 6.96248 1.98758 7.47976 1.88468C7.99704 1.78179 8.53322 1.8346 9.02049 2.03643C9.50776 2.23826 9.92423 2.58006 10.2173 3.01859C10.5103 3.45712 10.6667 3.97269 10.6667 4.50011C10.6667 5.20735 10.3857 5.88563 9.88562 6.38573C9.38552 6.88582 8.70724 7.16678 8 7.16678ZM16 16.9446V16.0557C16 14.4054 15.3444 12.8228 14.1776 11.6559C13.0107 10.489 11.428 9.83344 9.77778 9.83344H6.22222C4.57199 9.83344 2.98934 10.489 1.82245 11.6559C0.655554 12.8228 0 14.4054 0 16.0557V16.9446H1.77778V16.0557C1.77778 14.8769 2.24603 13.7465 3.07953 12.913C3.91302 12.0795 5.04348 11.6112 6.22222 11.6112H9.77778C10.9565 11.6112 12.087 12.0795 12.9205 12.913C13.754 13.7465 14.2222 14.8769 14.2222 16.0557V16.9446H16Z" fill="#1A1A1A"/>
</svg>