<svg width="45" height="32" viewBox="0 0 45 32" fill="none" xmlns="http://www.w3.org/2000/svg">
<rect x="0.5" y="0.5" width="44" height="30.7647" rx="4.79412" fill="#1A1A1A" stroke="#333333"/>
<path fill-rule="evenodd" clip-rule="evenodd" d="M14.2269 20.9889H11.5008L9.4565 12.9605C9.35947 12.5912 9.15345 12.2647 8.8504 12.1108C8.0941 11.7241 7.26071 11.4164 6.35156 11.2612V10.9521H10.7431C11.3492 10.9521 11.8038 11.4164 11.8796 11.9556L12.9403 17.7467L15.6651 10.9521H18.3154L14.2269 20.9889ZM19.8298 20.9889H17.2552L19.3752 10.9521H21.9498L19.8298 20.9889ZM25.2801 13.7327C25.3558 13.1921 25.8104 12.883 26.3408 12.883C27.1741 12.8054 28.082 12.9606 28.8396 13.346L29.2942 11.185C28.5365 10.8759 27.7032 10.7207 26.9469 10.7207C24.448 10.7207 22.6297 12.1109 22.6297 14.0404C22.6297 15.5083 23.9177 16.279 24.8268 16.7433C25.8104 17.2063 26.1892 17.5154 26.1135 17.9783C26.1135 18.6728 25.3558 18.9819 24.5995 18.9819C23.6904 18.9819 22.7812 18.7504 21.9492 18.3637L21.4946 20.526C22.4038 20.9114 23.3873 21.0666 24.2965 21.0666C27.0984 21.1429 28.8396 19.7539 28.8396 17.6693C28.8396 15.044 25.2801 14.8901 25.2801 13.7327V13.7327ZM37.8499 20.9889L35.8056 10.9521H33.6098C33.1552 10.9521 32.7007 11.2612 32.5491 11.7241L28.7637 20.9889H31.414L31.943 19.5223H35.1995L35.5026 20.9889H37.8499ZM33.9894 13.655L34.7457 17.4377H32.6257L33.9894 13.655Z" fill="white"/>
</svg>
